HIERARCHY
ROOT Root
{
  OFFSET 0.0 0.0 0.0
  CHANNELS 6 Xposition Yposition Zposition Zrotation Yrotation Xrotation
  JOINT Hips
  {
    OFFSET 0.0 100.0 0.0
    CHANNELS 6 Xposition Yposition Zposition Zrotation Yrotation Xrotation
    JOINT Spine1
    {
      OFFSET -0.013727 5.003763 -0.053727
      CHANNELS 3 Zrotation Yrotation Xrotation
      JOINT Spine2
      {
        OFFSET -0.0 7.125301 -0.029825
        CHANNELS 3 Zrotation Yrotation Xrotation
        JOINT Chest
        {
          OFFSET -1e-06 7.550063 -0.815971
          CHANNELS 3 Zrotation Yrotation Xrotation
          JOINT Neck1
          {
            OFFSET -0.181677 26.311295 -0.553348
            CHANNELS 3 Zrotation Yrotation Xrotation
            JOINT Neck2
            {
              OFFSET -3e-06 7.709397 2.302585
              CHANNELS 3 Zrotation Yrotation Xrotation
              JOINT Head
              {
                OFFSET -5e-06 6.128916 1.953709
                CHANNELS 3 Zrotation Yrotation Xrotation
                JOINT HeadEnd
                {
                  OFFSET 0.003598 16.065403 -1.835379
                  CHANNELS 3 Zrotation Yrotation Xrotation
                }
                JOINT Jaw
                {
                  OFFSET 0.002637 0.475592 3.094941
                  CHANNELS 3 Zrotation Yrotation Xrotation
                }
                JOINT LeftEye
                {
                  OFFSET 3.206381 5.380205 7.586883
                  CHANNELS 3 Zrotation Yrotation Xrotation
                }
                JOINT RightEye
                {
                  OFFSET -3.22244 5.361869 7.558234
                  CHANNELS 3 Zrotation Yrotation Xrotation
                }
              }
            }
          }
          JOINT LeftShoulder
          {
            OFFSET 1.621652 23.237164 5.113413
            CHANNELS 3 Zrotation Yrotation Xrotation
            JOINT LeftArm
            {
              OFFSET 14.919846 2e-06 -5.502326
              CHANNELS 3 Zrotation Yrotation Xrotation
              JOINT LeftForeArm
              {
                OFFSET 28.739307 0.0 -0.002588
                CHANNELS 3 Zrotation Yrotation Xrotation
                JOINT LeftHand
                {
                  OFFSET 27.093981 -1e-06 0.002609
                  CHANNELS 3 Zrotation Yrotation Xrotation
                  JOINT LeftHandThumb1
                  {
                    OFFSET 2.276482 -1.392045 3.191413
                    CHANNELS 3 Zrotation Yrotation Xrotation
                    JOINT LeftHandThumb2
                    {
                      OFFSET 4.012836 -1.828127 1.641654
                      CHANNELS 3 Zrotation Yrotation Xrotation
                      JOINT LeftHandThumb3
                      {
                        OFFSET 2.798515 0.0 -3e-06
                        CHANNELS 3 Zrotation Yrotation Xrotation
                        JOINT LeftHandThumbEnd
                        {
                          OFFSET 3.180793 -4e-06 4e-06
                          CHANNELS 3 Zrotation Yrotation Xrotation
                        }
                      }
                    }
                  }
                  JOINT LeftHandIndex1
                  {
                    OFFSET 3.247555 -0.531998 2.296169
                    CHANNELS 3 Zrotation Yrotation Xrotation
                    JOINT LeftHandIndex2
                    {
                      OFFSET 6.364578 0.01206 0.1786
                      CHANNELS 3 Zrotation Yrotation Xrotation
                      JOINT LeftHandIndex3
                      {
                        OFFSET 3.662364 0.0 0.0
                        CHANNELS 3 Zrotation Yrotation Xrotation
                        JOINT LeftHandIndex4
                        {
                          OFFSET 2.329242 4e-06 4e-06
                          CHANNELS 3 Zrotation Yrotation Xrotation
                          JOINT LeftHandIndexEnd
                          {
                            OFFSET 2.759615 -0.180537 -0.113024
                            CHANNELS 3 Zrotation Yrotation Xrotation
                          }
                        }
                      }
                    }
                  }
                  JOINT LeftHandMiddle1
                  {
                    OFFSET 3.163495 0.240981 1.000332
                    CHANNELS 3 Zrotation Yrotation Xrotation
                    JOINT LeftHandMiddle2
                    {
                      OFFSET 6.19078 -0.259278 -1.002548
                      CHANNELS 3 Zrotation Yrotation Xrotation
                      JOINT LeftHandMiddle3
                      {
                        OFFSET 4.35652 -4e-06 -1e-06
                        CHANNELS 3 Zrotation Yrotation Xrotation
                        JOINT LeftHandMiddle4
                        {
                          OFFSET 2.996877 -8e-06 0.0
                          CHANNELS 3 Zrotation Yrotation Xrotation
                          JOINT LeftHandMiddleEnd
                          {
                            OFFSET 2.304287 -0.294569 -0.031741
                            CHANNELS 3 Zrotation Yrotation Xrotation
                          }
                        }
                      }
                    }
                  }
                  JOINT LeftHandRing1
                  {
                    OFFSET 2.882643 -0.053652 -0.322543
                    CHANNELS 3 Zrotation Yrotation Xrotation
                    JOINT LeftHandRing2
                    {
                      OFFSET 5.854541 -0.486202 -1.373841
                      CHANNELS 3 Zrotation Yrotation Xrotation
                      JOINT LeftHandRing3
                      {
                        OFFSET 4.350578 0.0 3e-06
                        CHANNELS 3 Zrotation Yrotation Xrotation
                        JOINT LeftHandRing4
                        {
                          OFFSET 2.651321 7e-06 2e-06
                          CHANNELS 3 Zrotation Yrotation Xrotation
                          JOINT LeftHandRingEnd
                          {
                            OFFSET 1.936105 0.077687 -7.1e-05
                            CHANNELS 3 Zrotation Yrotation Xrotation
                          }
                        }
                      }
                    }
                  }
                  JOINT LeftHandPinky1
                  {
                    OFFSET 2.8655 -0.310005 -1.600378
                    CHANNELS 3 Zrotation Yrotation Xrotation
                    JOINT LeftHandPinky2
                    {
                      OFFSET 5.087849 -1.331141 -1.77123
                      CHANNELS 3 Zrotation Yrotation Xrotation
                      JOINT LeftHandPinky3
                      {
                        OFFSET 3.070974 4e-06 0.0
                        CHANNELS 3 Zrotation Yrotation Xrotation
                        JOINT LeftHandPinky4
                        {
                          OFFSET 1.549672 0.0 1e-06
                          CHANNELS 3 Zrotation Yrotation Xrotation
                          JOINT LeftHandPinkyEnd
                          {
                            OFFSET 1.944893 -0.157802 0.057219
                            CHANNELS 3 Zrotation Yrotation Xrotation
                          }
                        }
                      }
                    }
                  }
                }
              }
            }
          }
          JOINT RightShoulder
          {
            OFFSET -1.380118 23.180309 5.214158
            CHANNELS 3 Zrotation Yrotation Xrotation
            JOINT RightArm
            {
              OFFSET -15.037196 1.2e-05 -5.545604
              CHANNELS 3 Zrotation Yrotation Xrotation
              JOINT RightForeArm
              {
                OFFSET -28.736639 2e-06 -0.002597
                CHANNELS 3 Zrotation Yrotation Xrotation
                JOINT RightHand
                {
                  OFFSET -27.133619 -0.0 0.002613
                  CHANNELS 3 Zrotation Yrotation Xrotation
                  JOINT RightHandThumb1
                  {
                    OFFSET -2.274032 -1.383988 3.163127
                    CHANNELS 3 Zrotation Yrotation Xrotation
                    JOINT RightHandThumb2
                    {
                      OFFSET -4.011429 -1.827466 1.640914
                      CHANNELS 3 Zrotation Yrotation Xrotation
                      JOINT RightHandThumb3
                      {
                        OFFSET -2.794935 -4e-06 -3e-06
                        CHANNELS 3 Zrotation Yrotation Xrotation
                        JOINT RightHandThumbEnd
                        {
                          OFFSET -3.183852 4e-06 1e-06
                          CHANNELS 3 Zrotation Yrotation Xrotation
                        }
                      }
                    }
                  }
                  JOINT RightHandIndex1
                  {
                    OFFSET -3.253266 -0.520057 2.282866
                    CHANNELS 3 Zrotation Yrotation Xrotation
                    JOINT RightHandIndex2
                    {
                      OFFSET -6.341917 0.012471 0.178266
                      CHANNELS 3 Zrotation Yrotation Xrotation
                      JOINT RightHandIndex3
                      {
                        OFFSET -3.654871 -8e-06 -0.0
                        CHANNELS 3 Zrotation Yrotation Xrotation
                        JOINT RightHandIndex4
                        {
                          OFFSET -2.327586 0.0 1e-06
                          CHANNELS 3 Zrotation Yrotation Xrotation
                          JOINT RightHandIndexEnd
                          {
                            OFFSET -2.76179 -0.180656 -0.113078
                            CHANNELS 3 Zrotation Yrotation Xrotation
                          }
                        }
                      }
                    }
                  }
                  JOINT RightHandMiddle1
                  {
                    OFFSET -3.168106 0.246593 1.00103
                    CHANNELS 3 Zrotation Yrotation Xrotation
                    JOINT RightHandMiddle2
                    {
                      OFFSET -6.180828 -0.258836 -1.000895
                      CHANNELS 3 Zrotation Yrotation Xrotation
                      JOINT RightHandMiddle3
                      {
                        OFFSET -4.348901 0.0 -0.0
                        CHANNELS 3 Zrotation Yrotation Xrotation
                        JOINT RightHandMiddle4
                        {
                          OFFSET -3.00024 -4e-06 -2e-06
                          CHANNELS 3 Zrotation Yrotation Xrotation
                          JOINT RightHandMiddleEnd
                          {
                            OFFSET -2.30252 -0.29437 -0.031706
                            CHANNELS 3 Zrotation Yrotation Xrotation
                          }
                        }
                      }
                    }
                  }
                  JOINT RightHandRing1
                  {
                    OFFSET -2.88569 -0.067952 -0.308858
                    CHANNELS 3 Zrotation Yrotation Xrotation
                    JOINT RightHandRing2
                    {
                      OFFSET -5.854198 -0.48613 -1.373731
                      CHANNELS 3 Zrotation Yrotation Xrotation
                      JOINT RightHandRing3
                      {
                        OFFSET -4.33881 -4e-06 -0.0
                        CHANNELS 3 Zrotation Yrotation Xrotation
                        JOINT RightHandRing4
                        {
                          OFFSET -2.654903 -4e-06 4e-06
                          CHANNELS 3 Zrotation Yrotation Xrotation
                          JOINT RightHandRingEnd
                          {
                            OFFSET -1.933568 0.077527 -5.2e-05
                            CHANNELS 3 Zrotation Yrotation Xrotation
                          }
                        }
                      }
                    }
                  }
                  JOINT RightHandPinky1
                  {
                    OFFSET -2.866425 -0.342796 -1.584145
                    CHANNELS 3 Zrotation Yrotation Xrotation
                    JOINT RightHandPinky2
                    {
                      OFFSET -5.091371 -1.332055 -1.772385
                      CHANNELS 3 Zrotation Yrotation Xrotation
                      JOINT RightHandPinky3
                      {
                        OFFSET -3.062664 -4e-06 1e-06
                        CHANNELS 3 Zrotation Yrotation Xrotation
                        JOINT RightHandPinky4
                        {
                          OFFSET -1.546529 4e-06 -2e-06
                          CHANNELS 3 Zrotation Yrotation Xrotation
                          JOINT RightHandPinkyEnd
                          {
                            OFFSET -1.945119 -0.157718 0.057211
                            CHANNELS 3 Zrotation Yrotation Xrotation
                          }
                        }
                      }
                    }
                  }
                }
              }
            }
          }
        }
      }
    }
    JOINT LeftLeg
    {
      OFFSET 10.043214 -8.434526 2.595655
      CHANNELS 3 Zrotation Yrotation Xrotation
      JOINT LeftShin
      {
        OFFSET -1e-06 -43.221752 -0.802913
        CHANNELS 3 Zrotation Yrotation Xrotation
        JOINT LeftFoot
        {
          OFFSET 1e-06 -42.155094 -3.481523
          CHANNELS 3 Zrotation Yrotation Xrotation
          JOINT LeftToeBase
          {
            OFFSET 0.0 -5.059472 13.231529
            CHANNELS 3 Zrotation Yrotation Xrotation
            JOINT LeftToeEnd
            {
              OFFSET -0.009607 -1.647619 6.513017
              CHANNELS 3 Zrotation Yrotation Xrotation
            }
          }
        }
      }
    }
    JOINT RightLeg
    {
      OFFSET -10.047278 -8.29526 2.620317
      CHANNELS 3 Zrotation Yrotation Xrotation
      JOINT RightShin
      {
        OFFSET 1e-06 -43.362206 -0.805556
        CHANNELS 3 Zrotation Yrotation Xrotation
        JOINT RightFoot
        {
          OFFSET 2e-06 -42.117393 -3.478398
          CHANNELS 3 Zrotation Yrotation Xrotation
          JOINT RightToeBase
          {
            OFFSET -0.0 -5.079609 13.284196
            CHANNELS 3 Zrotation Yrotation Xrotation
            JOINT RightToeEnd
            {
              OFFSET 0.009532 -1.634378 6.460591
              CHANNELS 3 Zrotation Yrotation Xrotation
            }
          }
        }
      }
    }
  }
}
MOTION
Frames: 4
Frame Time: 0.03333333333333333
-3.439443 0.0 0.599595 0.0 0.195295 0.0 0.0 99.502274 0.0 0.647889 -0.034434 3.065772 2.039632 -0.350032 2.620632 -0.146861 -0.834138 -4.221118 0.145813 -3.226733 12.33369 -3.609164 4.525034 2.823444 0.567633 1.544046 -3.725028 -0.990525 2.11667 -12.057019 0.000158 -0.001108 0.001398 -0.011551 -0.121904 -0.014694 0.686294 -3.855201 -10.614251 -0.713176 3.611517 -10.618188 -12.683269 -6.259329 17.304602 -50.185318 -9.49743 25.393705 0.079648 -41.647133 -0.566462 6.383111 3.929705 0.334379 -5.872393 9.825143 0.750339 -10.958302 -0.387444 7.099802 -0.004939 8.771332 -0.006972 -15.935128 17.914637 6.294647 -1.841387 2.492564 -2.472397 -10.15565 4.679473 4.606595 -20.957542 0.005496 0.002861 -21.19031 2.444236 -3.578613 -0.008015 0.004303 -0.001169 -1.358926 2.227525 -0.70708 -21.319242 0.59173 2.981036 -13.800174 0.002087 0.004187 -23.882294 -0.256174 -0.828227 -60.68684 2.636108 -0.812461 -0.29871 1.672096 0.862612 -14.202024 0.09854 1.301145 -34.205303 -0.29562 0.948178 -20.011147 0.977081 1.219289 -0.009138 -0.006463 -0.006453 -3.424651 0.782738 0.50757 -15.933722 -3.155863 3.018637 -6.336588 -0.004328 0.001474 -18.106174 3.652803 -4.912344 -5.6e-05 -0.004702 -0.007558 13.79077 11.341034 17.254995 49.021255 11.893039 32.833122 -0.555987 44.763935 -0.107076 3.265598 3.604943 8.766713 2.271075 -5.203373 -3.071285 14.313459 -0.815696 6.972819 0.005339 -12.675316 -0.002096 16.005791 -17.601686 2.508691 1.655969 -1.953654 -2.888565 4.727865 -4.164683 4.978231 11.00684 -0.00327 0.013205 12.084445 -3.733235 -2.866926 0.001849 0.000344 0.004173 1.281482 -1.924118 -1.518691 14.805594 0.563864 3.880083 14.224437 -1.329896 -6.658736 19.603251 0.135336 -0.641656 50.041183 -0.836263 -6.48173 0.348089 -1.499437 -0.053563 20.20866 3.659187 2.316937 18.770765 -0.00711 0.017808 10.759391 -0.489914 1.396813 -0.000569 -0.004692 -0.004714 3.266209 0.314311 -0.608201 21.484472 11.81137 2.273443 8.16664 0.005129 -0.002982 18.399801 -3.817241 -4.94511 -0.000771 0.008433 0.00832 4.981566 17.790108 -12.488178 -0.196301 -0.664184 5.860401 -14.495155 -6.778266 1.113833 1.669082 -1.949938 -1.574219 0.001 -0.002325 0.00703 0.074036 -18.871605 -14.048806 0.116711 0.018509 19.43821 0.937035 3.51245 -8.449928 -1.431355 0.923455 -0.331474 -0.000946 -0.007522 0.007641 
-3.70837 0.0 0.375037 0.0 2.642668 0.0 0.0 99.569328 0.0 0.730905 -0.036797 3.192547 2.284328 -0.319114 2.675896 -0.080529 -0.644929 -4.257749 0.246568 -3.347463 12.43813 -3.89845 4.595831 2.904999 0.459314 1.658368 -3.729605 -1.26549 2.195079 -11.933578 0.000916 -0.001805 0.002625 -0.007755 -0.065001 -0.012765 0.680328 -3.799463 -10.62739 -0.702016 3.668815 -10.648046 -12.947137 -6.212365 17.229982 -50.666985 -9.691086 25.655725 0.336792 -41.757362 -0.447386 6.580203 3.849785 -0.076613 -5.912498 9.812316 0.784581 -10.902219 -0.313547 7.184908 0.002952 8.796222 -0.003992 -15.93367 18.025988 6.388393 -1.847782 2.500911 -2.518744 -10.173898 4.688933 4.606536 -20.990496 0.010009 0.004651 -21.255287 2.473172 -3.609451 -0.008931 0.002001 0.003382 -1.380764 2.248589 -0.746306 -21.363075 0.567389 3.001915 -13.843234 -0.005587 -0.001817 -23.923944 -0.25288 -0.850366 -61.090893 2.604096 -0.811837 -0.30909 1.699744 0.825568 -14.229307 0.069249 1.294806 -34.297714 -0.288328 0.967813 -20.071318 0.965708 1.226481 0.007435 -0.007213 -0.002126 -3.478923 0.818247 0.487742 -15.926269 -3.20958 2.992496 -6.352831 -0.002322 0.009919 -18.177616 3.648253 -4.932398 -0.006958 0.003449 0.00815 13.352086 11.757756 17.884855 48.995632 11.487139 32.548515 -0.749823 44.029449 -0.251056 3.084419 3.595474 9.406191 2.244355 -5.223014 -3.162139 14.287215 -0.830643 6.943859 -0.006996 -12.695138 -0.006207 15.879481 -17.611582 2.580665 1.661068 -1.959185 -2.876667 4.723721 -4.16955 4.999302 11.022259 -0.000176 0.003649 12.103184 -3.722413 -2.864347 0.004262 -0.001088 -0.005813 1.284505 -1.936197 -1.480456 14.801805 0.581492 3.858384 14.237206 -1.34103 -6.658578 19.592957 0.153573 -0.625212 49.848648 -0.835238 -6.462734 0.341561 -1.526247 -0.017025 20.229853 3.709317 2.3149 18.773977 0.01055 0.011681 10.739077 -0.504376 1.409639 -0.000829 0.015678 -0.003336 3.254915 0.306008 -0.581173 21.502663 11.830128 2.272563 8.164767 0.003049 -0.001014 18.417494 -3.788536 -4.941535 -0.003835 0.003774 -0.000521 4.978409 17.515461 -12.489064 -0.132806 -0.576915 3.717263 -12.307187 -5.005363 0.666329 1.650408 -1.955609 -1.551654 -0.000136 0.001515 0.002832 0.239128 -20.104282 -13.915387 0.105986 -0.002562 19.072739 1.05695 2.574903 -8.494708 -1.434849 0.889526 -0.472016 0.000507 0.006168 0.007513 
-3.936548 0.0 0.085509 0.0 5.2448 0.0 0.0 99.687859 0.0 0.81048 -0.037121 3.178483 2.476308 -0.268323 2.707305 -0.045727 -0.532701 -4.260871 0.36499 -3.292495 12.609702 -4.225684 4.556321 3.067342 0.416862 1.90634 -3.754315 -1.453739 2.347575 -11.816489 -0.000216 0.000807 -0.001716 -0.007691 -0.047934 -0.015203 0.67539 -3.798631 -10.676355 -0.695375 3.686248 -10.697163 -13.487887 -5.570055 17.199631 -50.859047 -9.769821 25.286451 0.50427 -41.787079 -0.374407 6.754817 3.718444 -0.298302 -5.868023 9.878041 0.621684 -10.965261 -0.379515 7.130013 -0.008409 8.779331 0.005694 -15.973139 18.076778 6.330087 -1.850413 2.501881 -2.493064 -10.153188 4.690277 4.620099 -20.963528 0.016498 -0.011254 -21.201649 2.473146 -3.614583 -0.004338 -0.003273 -0.021527 -1.374431 2.247733 -0.73838 -21.321032 0.60573 3.014219 -13.832608 0.012656 -0.010244 -23.90029 -0.208356 -0.869809 -61.095413 2.547211 -0.949379 -0.305057 1.692353 0.825705 -14.201508 0.093307 1.329098 -34.204483 -0.281515 0.950737 -20.022087 0.968969 1.212493 0.011514 -0.008296 0.008421 -3.459281 0.812379 0.505744 -15.904072 -3.172857 3.023372 -6.336473 0.002441 -0.013813 -18.114441 3.670914 -4.92932 -0.000143 -0.003354 -0.009219 13.419188 11.913199 17.611631 48.615402 11.095023 32.341003 -0.886697 42.978409 -0.329396 2.875279 3.496887 10.249964 2.217979 -5.279692 -3.232213 14.262147 -0.807042 6.927632 -0.003885 -12.673467 -0.005148 15.73823 -17.630753 2.685968 1.66461 -1.957472 -2.876814 4.728934 -4.157124 4.998109 11.012128 -0.000718 9e-05 12.093476 -3.72468 -2.862775 0.005495 -0.002294 0.00211 1.291596 -1.913257 -1.495855 14.793318 0.56117 3.865252 14.219141 -1.330933 -6.654019 19.544724 0.147188 -0.630701 49.629211 -0.823243 -6.406879 0.354455 -1.486642 -0.029628 20.217691 3.671731 2.304299 18.783924 -0.000894 -0.010926 10.769734 -0.467913 1.390771 -0.001757 -0.008631 -0.001648 3.266016 0.343759 -0.582346 21.484922 11.789806 2.250273 8.153197 -0.005952 -0.00106 18.334368 -3.769668 -4.932324 0.009635 -0.001496 0.000644 4.825688 18.428152 -12.572517 -0.063607 -0.508271 2.794457 -8.720413 -1.773948 -0.455844 1.651152 -1.97454 -1.648053 0.001491 -0.000561 -0.002122 0.295145 -21.433659 -13.459488 0.087117 -0.005315 18.298687 1.117698 1.650395 -8.072179 -1.428364 0.84077 -0.530518 -0.000334 0.001904 0.005883 
-4.197016 0.0 -0.214295 0.0 7.945019 0.0 0.0 99.772629 0.0 0.816431 -0.032171 3.024467 2.688568 -0.229245 2.800531 -0.055063 -0.432887 -4.251034 0.498144 -3.125512 12.771027 -4.58076 4.598465 3.466878 0.419602 2.214521 -3.80879 -1.583897 2.595718 -11.862823 -7.3e-05 0.003382 -0.001745 -0.005731 -0.017324 -0.018808 0.674315 -3.771779 -10.718928 -0.694058 3.713318 -10.741317 -13.462803 -5.521574 17.204578 -51.512005 -9.746523 24.881516 0.441353 -42.248779 -0.231161 6.880532 3.593681 -0.361689 -5.871628 9.87174 0.70017 -10.943829 -0.347884 7.14822 -0.000187 8.776205 -0.000726 -15.980379 18.065641 6.313992 -1.855791 2.489622 -2.478392 -10.153171 4.66878 4.621776 -20.979727 -0.012055 -0.005427 -21.230392 2.453972 -3.56834 0.009499 -0.005959 -0.00757 -1.3645 2.233908 -0.715247 -21.330994 0.563739 3.006325 -13.809702 -0.007533 0.019874 -23.844463 -0.263195 -0.843841 -60.950497 2.576954 -0.851111 -0.30457 1.679556 0.874202 -14.210423 0.076476 1.295264 -34.201942 -0.300201 0.957347 -20.030975 0.958214 1.216365 0.0 -1e-06 0.0 -3.438773 0.78551 0.516722 -15.933317 -3.187623 2.999665 -6.344063 -0.002394 0.002644 -18.123617 3.644221 -4.907064 -0.008587 -0.006174 0.007896 12.963758 12.568398 18.602051 48.570732 11.040434 32.652687 -0.86683 41.873848 -0.317153 2.88048 3.384852 11.44505 2.210692 -5.225238 -3.152355 14.25689 -0.869136 6.98356 -0.001171 -12.713766 -0.000663 15.530123 -17.647253 2.814938 1.662445 -1.961932 -2.884129 4.734732 -4.169901 4.99806 11.026964 0.005374 -0.008451 12.111985 -3.741981 -2.872944 0.011985 0.004687 -0.005687 1.286666 -1.950301 -1.49555 14.818529 0.594866 3.861554 14.25561 -1.348734 -6.672395 19.666391 0.153502 -0.656191 49.717045 -0.786278 -6.402345 0.350349 -1.529681 -0.03089 20.236515 3.699894 2.310963 18.806822 0.012559 -0.012052 10.766274 -0.462323 1.397291 -0.000356 -0.004384 -0.005795 3.294951 0.272307 -0.590411 21.50458 11.895481 2.267196 8.170835 -0.017006 -0.005659 18.430464 -3.799741 -4.958834 0.016539 -0.006553 -0.00505 4.64693 21.011021 -13.009533 -0.027001 -0.469145 3.996547 -6.463815 1.68361 -1.434502 1.676055 -2.02346 -1.74845 -0.001451 0.00189 0.000385 0.405493 -22.806828 -12.879007 0.054939 -0.01906 17.620592 1.10922 0.65595 -8.035069 -1.419891 0.788107 -0.57134 0.000621 -0.002812 -0.003661 
